HIERARCHY
ROOT Hips
{
	OFFSET -339.306915 540.749023 89.171944
	CHANNELS 6 Xposition Yposition Zposition Zrotation Yrotation Xrotation
	JOINT Spine
	{
		OFFSET 0.000000 2.080078 8.814247
		CHANNELS 6 Xposition Yposition Zposition Zrotation Yrotation Xrotation
		JOINT Spine1
		{
			OFFSET 0.000000 0.000000 8.844139
			CHANNELS 6 Xposition Yposition Zposition Zrotation Yrotation Xrotation
			JOINT Spine2
			{
				OFFSET 0.000000 0.000000 11.682266
				CHANNELS 6 Xposition Yposition Zposition Zrotation Yrotation Xrotation
				JOINT Spine3
				{
					OFFSET 0.000000 0.000000 11.746696
					CHANNELS 6 Xposition Yposition Zposition Zrotation Yrotation Xrotation
					JOINT Neck
					{
						OFFSET 0.000000 0.000000 17.658264
						CHANNELS 6 Xposition Yposition Zposition Zrotation Yrotation Xrotation
						JOINT Neck1
						{
							OFFSET 0.000000 0.000000 5.101517
							CHANNELS 6 Xposition Yposition Zposition Zrotation Yrotation Xrotation
							JOINT Head
							{
								OFFSET 0.000000 0.000000 5.101517
								CHANNELS 6 Xposition Yposition Zposition Zrotation Yrotation Xrotation
								JOINT HeadEnd
								{
									OFFSET 0.000000 0.000000 11.655090
									CHANNELS 6 Xposition Yposition Zposition Zrotation Yrotation Xrotation
									End Site
									{
										OFFSET 0.000000 0.000000 0.100006
									}
								}
							}
						}
					}
					JOINT RightShoulder
					{
						OFFSET -2.625397 0.000000 11.175217
						CHANNELS 6 Xposition Yposition Zposition Zrotation Yrotation Xrotation
						JOINT RightArm
						{
							OFFSET 0.000000 0.000000 10.434708
							CHANNELS 6 Xposition Yposition Zposition Zrotation Yrotation Xrotation
							JOINT RightForeArm
							{
								OFFSET 0.000000 0.000000 29.628418
								CHANNELS 6 Xposition Yposition Zposition Zrotation Yrotation Xrotation
								JOINT RightHand
								{
									OFFSET 0.000000 0.000000 22.857605
									CHANNELS 6 Xposition Yposition Zposition Zrotation Yrotation Xrotation
									JOINT RightHandThumb1
									{
										OFFSET -2.867310 -2.944275 3.959564
										CHANNELS 6 Xposition Yposition Zposition Zrotation Yrotation Xrotation
										JOINT RightHandThumb2
										{
											OFFSET 0.000000 0.000000 3.350403
											CHANNELS 6 Xposition Yposition Zposition Zrotation Yrotation Xrotation
											JOINT RightHandThumb3
											{
												OFFSET 0.000000 0.000000 3.756516
												CHANNELS 6 Xposition Yposition Zposition Zrotation Yrotation Xrotation
												JOINT RightHandThumb4
												{
													OFFSET 0.000000 0.000000 3.147339
													CHANNELS 6 Xposition Yposition Zposition Zrotation Yrotation Xrotation
													End Site
													{
														OFFSET 0.000000 0.000000 0.100006
													}
												}
											}
										}
									}
									JOINT RightHandIndex1
									{
										OFFSET -0.086761 -2.345276 10.030899
										CHANNELS 6 Xposition Yposition Zposition Zrotation Yrotation Xrotation
										JOINT RightHandIndex2
										{
											OFFSET 0.000000 0.000000 4.061096
											CHANNELS 6 Xposition Yposition Zposition Zrotation Yrotation Xrotation
											JOINT RightHandIndex3
											{
												OFFSET 0.000000 0.000000 3.248871
												CHANNELS 6 Xposition Yposition Zposition Zrotation Yrotation Xrotation
												JOINT RightHandIndex4
												{
													OFFSET 0.000000 0.000000 2.639709
													CHANNELS 6 Xposition Yposition Zposition Zrotation Yrotation Xrotation
													End Site
													{
														OFFSET 0.000000 0.000000 0.100006
													}
												}
											}
										}
									}
									JOINT RightHandMiddle1
									{
										OFFSET 0.104095 -0.006775 9.502945
										CHANNELS 6 Xposition Yposition Zposition Zrotation Yrotation Xrotation
										JOINT RightHandMiddle2
										{
											OFFSET 0.000000 0.000000 4.568726
											CHANNELS 6 Xposition Yposition Zposition Zrotation Yrotation Xrotation
											JOINT RightHandMiddle3
											{
												OFFSET 0.000000 0.000000 3.654984
												CHANNELS 6 Xposition Yposition Zposition Zrotation Yrotation Xrotation
												JOINT RightHandMiddle4
												{
													OFFSET 0.000000 0.000000 2.741241
													CHANNELS 6 Xposition Yposition Zposition Zrotation Yrotation Xrotation
													End Site
													{
														OFFSET 0.000000 0.000000 0.100006
													}
												}
											}
										}
									}
									JOINT RightHandRing1
									{
										OFFSET 0.086761 2.267456 8.921707
										CHANNELS 6 Xposition Yposition Zposition Zrotation Yrotation Xrotation
										JOINT RightHandRing2
										{
											OFFSET 0.000000 0.000000 4.061096
											CHANNELS 6 Xposition Yposition Zposition Zrotation Yrotation Xrotation
											JOINT RightHandRing3
											{
												OFFSET 0.000000 0.000000 3.654984
												CHANNELS 6 Xposition Yposition Zposition Zrotation Yrotation Xrotation
												JOINT RightHandRing4
												{
													OFFSET 0.000000 0.000000 2.741241
													CHANNELS 6 Xposition Yposition Zposition Zrotation Yrotation Xrotation
													End Site
													{
														OFFSET 0.000000 0.000000 0.100006
													}
												}
											}
										}
									}
									JOINT RightHandPinky1
									{
										OFFSET -0.173492 4.467224 7.976990
										CHANNELS 6 Xposition Yposition Zposition Zrotation Yrotation Xrotation
										JOINT RightHandPinky2
										{
											OFFSET 0.000000 0.000000 3.350403
											CHANNELS 6 Xposition Yposition Zposition Zrotation Yrotation Xrotation
											JOINT RightHandPinky3
											{
												OFFSET 0.000000 0.000000 2.842758
												CHANNELS 6 Xposition Yposition Zposition Zrotation Yrotation Xrotation
												JOINT RightHandPinky4
												{
													OFFSET 0.000000 0.000000 2.639709
													CHANNELS 6 Xposition Yposition Zposition Zrotation Yrotation Xrotation
													End Site
													{
														OFFSET 0.000000 0.000000 0.100006
													}
												}
											}
										}
									}
									JOINT RightForeArmEnd
									{
										OFFSET 0.000000 0.000000 0.000000
										CHANNELS 6 Xposition Yposition Zposition Zrotation Yrotation Xrotation
										End Site
										{
											OFFSET 0.000000 0.000000 0.100006
										}
									}
								}
								JOINT RightArmEnd
								{
									OFFSET 0.000000 0.000000 0.000000
									CHANNELS 6 Xposition Yposition Zposition Zrotation Yrotation Xrotation
									End Site
									{
										OFFSET 0.000000 0.000000 0.100006
									}
								}
							}
						}
					}
					JOINT LeftShoulder
					{
						OFFSET 2.625397 0.000000 11.175217
						CHANNELS 6 Xposition Yposition Zposition Zrotation Yrotation Xrotation
						JOINT LeftArm
						{
							OFFSET 0.000000 0.000000 10.813629
							CHANNELS 6 Xposition Yposition Zposition Zrotation Yrotation Xrotation
							JOINT LeftForeArm
							{
								OFFSET 0.000000 0.000000 28.724777
								CHANNELS 6 Xposition Yposition Zposition Zrotation Yrotation Xrotation
								JOINT LeftHand
								{
									OFFSET 0.644379 0.328857 25.716171
									CHANNELS 6 Xposition Yposition Zposition Zrotation Yrotation Xrotation
									JOINT LeftHandThumb1
									{
										OFFSET 2.867310 -2.944275 3.959564
										CHANNELS 6 Xposition Yposition Zposition Zrotation Yrotation Xrotation
										JOINT LeftHandThumb2
										{
											OFFSET 0.000000 0.000000 3.350403
											CHANNELS 6 Xposition Yposition Zposition Zrotation Yrotation Xrotation
											JOINT LeftHandThumb3
											{
												OFFSET 0.000000 0.000000 3.756516
												CHANNELS 6 Xposition Yposition Zposition Zrotation Yrotation Xrotation
												JOINT LeftHandThumb4
												{
													OFFSET 0.000000 0.000000 3.100006
													CHANNELS 6 Xposition Yposition Zposition Zrotation Yrotation Xrotation
													End Site
													{
														OFFSET 0.000000 0.000000 0.100006
													}
												}
											}
										}
									}
									JOINT LeftHandIndex1
									{
										OFFSET 0.086761 -2.345276 10.030899
										CHANNELS 6 Xposition Yposition Zposition Zrotation Yrotation Xrotation
										JOINT LeftHandIndex2
										{
											OFFSET 0.000000 0.000000 4.061096
											CHANNELS 6 Xposition Yposition Zposition Zrotation Yrotation Xrotation
											JOINT LeftHandIndex3
											{
												OFFSET 0.000000 0.000000 3.248871
												CHANNELS 6 Xposition Yposition Zposition Zrotation Yrotation Xrotation
												JOINT LeftHandIndex4
												{
													OFFSET 0.000000 0.000000 2.639709
													CHANNELS 6 Xposition Yposition Zposition Zrotation Yrotation Xrotation
													End Site
													{
														OFFSET 0.000000 0.000000 0.100006
													}
												}
											}
										}
									}
									JOINT LeftHandMiddle1
									{
										OFFSET -0.104095 -0.006775 9.502945
										CHANNELS 6 Xposition Yposition Zposition Zrotation Yrotation Xrotation
										JOINT LeftHandMiddle2
										{
											OFFSET 0.000000 0.000000 4.568726
											CHANNELS 6 Xposition Yposition Zposition Zrotation Yrotation Xrotation
											JOINT LeftHandMiddle3
											{
												OFFSET 0.000000 0.000000 3.654984
												CHANNELS 6 Xposition Yposition Zposition Zrotation Yrotation Xrotation
												JOINT LeftHandMiddle4
												{
													OFFSET 0.000000 0.000000 2.741241
													CHANNELS 6 Xposition Yposition Zposition Zrotation Yrotation Xrotation
													End Site
													{
														OFFSET 0.000000 0.000000 0.100006
													}
												}
											}
										}
									}
									JOINT LeftHandRing1
									{
										OFFSET -0.086761 2.267456 8.921707
										CHANNELS 6 Xposition Yposition Zposition Zrotation Yrotation Xrotation
										JOINT LeftHandRing2
										{
											OFFSET 0.000000 0.000000 4.061096
											CHANNELS 6 Xposition Yposition Zposition Zrotation Yrotation Xrotation
											JOINT LeftHandRing3
											{
												OFFSET 0.000000 0.000000 3.654984
												CHANNELS 6 Xposition Yposition Zposition Zrotation Yrotation Xrotation
												JOINT LeftHandRing4
												{
													OFFSET 0.000000 0.000000 2.741241
													CHANNELS 6 Xposition Yposition Zposition Zrotation Yrotation Xrotation
													End Site
													{
														OFFSET 0.000000 0.000000 0.100006
													}
												}
											}
										}
									}
									JOINT LeftHandPinky1
									{
										OFFSET 0.173492 4.467224 7.976990
										CHANNELS 6 Xposition Yposition Zposition Zrotation Yrotation Xrotation
										JOINT LeftHandPinky2
										{
											OFFSET 0.000000 0.000000 3.350403
											CHANNELS 6 Xposition Yposition Zposition Zrotation Yrotation Xrotation
											JOINT LeftHandPinky3
											{
												OFFSET 0.000000 0.000000 2.842758
												CHANNELS 6 Xposition Yposition Zposition Zrotation Yrotation Xrotation
												JOINT LeftHandPinky4
												{
													OFFSET 0.000000 0.000000 2.639709
													CHANNELS 6 Xposition Yposition Zposition Zrotation Yrotation Xrotation
													End Site
													{
														OFFSET 0.000000 0.000000 0.100006
													}
												}
											}
										}
									}
									JOINT LeftForeArmEnd
									{
										OFFSET 0.000000 0.000000 0.000000
										CHANNELS 6 Xposition Yposition Zposition Zrotation Yrotation Xrotation
										End Site
										{
											OFFSET 0.000000 0.000000 0.100006
										}
									}
								}
								JOINT LeftArmEnd
								{
									OFFSET 0.000000 0.000000 0.000000
									CHANNELS 6 Xposition Yposition Zposition Zrotation Yrotation Xrotation
									End Site
									{
										OFFSET 0.000000 0.000000 0.100006
									}
								}
							}
						}
					}
				}
			}
		}
	}
	JOINT RightUpLeg
	{
		OFFSET -11.289948 0.000000 0.000000
		CHANNELS 6 Xposition Yposition Zposition Zrotation Yrotation Xrotation
		JOINT RightLeg
		{
			OFFSET 0.000000 0.000000 -38.200329
			CHANNELS 6 Xposition Yposition Zposition Zrotation Yrotation Xrotation
			JOINT RightFoot
			{
				OFFSET 0.000000 0.000000 -39.900856
				CHANNELS 6 Xposition Yposition Zposition Zrotation Yrotation Xrotation
				JOINT RightToeBase
				{
					OFFSET 0.000000 -15.261658 0.000001
					CHANNELS 6 Xposition Yposition Zposition Zrotation Yrotation Xrotation
					JOINT RightToeBaseEnd
					{
						OFFSET 0.000000 -7.370728 0.000001
						CHANNELS 6 Xposition Yposition Zposition Zrotation Yrotation Xrotation
						End Site
						{
							OFFSET 0.000000 0.000000 0.100000
						}
					}
				}
				JOINT RightLegEnd
				{
					OFFSET 0.000000 0.000000 0.000000
					CHANNELS 6 Xposition Yposition Zposition Zrotation Yrotation Xrotation
					End Site
					{
						OFFSET 0.000000 0.000000 0.100000
					}
				}
			}
			JOINT RightUpLegEnd
			{
				OFFSET 0.000000 0.000000 0.000000
				CHANNELS 6 Xposition Yposition Zposition Zrotation Yrotation Xrotation
				End Site
				{
					OFFSET 0.000000 0.000000 0.099998
				}
			}
		}
	}
	JOINT LeftUpLeg
	{
		OFFSET 11.315674 0.000000 0.000000
		CHANNELS 6 Xposition Yposition Zposition Zrotation Yrotation Xrotation
		JOINT LeftLeg
		{
			OFFSET 0.000000 0.000000 -38.200329
			CHANNELS 6 Xposition Yposition Zposition Zrotation Yrotation Xrotation
			JOINT LeftFoot
			{
				OFFSET 0.000000 0.000000 -39.900856
				CHANNELS 6 Xposition Yposition Zposition Zrotation Yrotation Xrotation
				JOINT LeftToeBase
				{
					OFFSET 0.000000 -15.261658 0.000001
					CHANNELS 6 Xposition Yposition Zposition Zrotation Yrotation Xrotation
					JOINT LeftToeBaseEnd
					{
						OFFSET 0.000000 -7.539978 0.000001
						CHANNELS 6 Xposition Yposition Zposition Zrotation Yrotation Xrotation
						End Site
						{
							OFFSET 0.000000 0.000000 0.100000
						}
					}
				}
				JOINT LeftLegEnd
				{
					OFFSET 0.000000 0.000000 0.000000
					CHANNELS 6 Xposition Yposition Zposition Zrotation Yrotation Xrotation
					End Site
					{
						OFFSET 0.000000 0.000000 0.100000
					}
				}
			}
			JOINT LeftUpLegEnd
			{
				OFFSET 0.000000 0.000000 0.000000
				CHANNELS 6 Xposition Yposition Zposition Zrotation Yrotation Xrotation
				End Site
				{
					OFFSET 0.000000 0.000000 0.099998
				}
			}
		}
	}
}
MOTION
Frames: 2
Frame Time: 0.016667
41.996033 -61.743286 84.697182 -45.241988 -5.376917 -9.888705 -0.000008 2.080052 8.814255 -1.108152 7.993214 8.854934 -0.000009 0.000021 8.844139 -0.555483 1.195236 4.174238 -0.000005 -0.000011 11.682276 -17.925389 -2.825704 3.852794 0.000006 0.000024 11.746708 -7.883807 -5.634160 3.023484 -0.000011 0.000012 17.658268 25.919315 20.220126 5.436335 -0.000036 -0.000011 5.101542 25.440259 -1.468501 -12.042587 -0.000008 0.000032 5.101562 0.063136 4.867876 -15.987164 -0.000025 -0.000004 11.655088 0.000001 0.000000 -0.000000 -2.625395 0.000000 11.175232 1.251778 -72.377732 -0.460280 -0.000038 0.000015 10.434738 39.473190 -25.515644 -46.268009 0.000017 0.000006 29.628418 33.626831 3.927733 11.693744 -0.000023 -0.000038 22.857597 25.061588 21.260970 -15.359776 -2.867317 -2.944275 3.959534 33.272877 -11.458570 61.329723 -0.000003 0.000030 3.350399 -0.293597 0.290438 -0.605627 0.000000 -0.000003 3.756512 -0.203433 0.202048 -0.402882 -0.000001 -0.000008 3.147335 0.000000 0.000001 0.000001 -0.086761 -2.345268 10.030899 17.995527 35.952354 31.390139 0.000008 0.000014 4.061106 -0.832931 -0.000078 0.000181 -0.000011 0.000025 3.248874 -0.312919 -0.000007 0.015278 0.000001 0.000006 2.639714 -0.000000 -0.000002 0.000000 0.104088 -0.006771 9.502945 11.928869 36.478029 23.243094 -0.000000 0.000014 4.568711 -0.619148 -0.000234 0.000429 0.000010 0.000028 3.654968 -0.086307 -0.000001 0.028373 -0.000006 -0.000008 2.741252 0.000001 -0.000000 -0.000000 0.086761 2.267465 8.921692 1.536273 35.162371 11.136918 -0.000003 0.000002 4.061088 1.135989 0.034271 0.000882 0.000012 0.000029 3.654987 0.105257 -0.017971 -0.000359 0.000014 -0.000004 2.741251 0.000001 0.000000 0.000001 -0.173492 4.467232 7.976967 -9.278091 30.163130 0.543593 0.000006 0.000026 3.350420 2.179710 0.000126 -0.000969 -0.000007 0.000028 2.842765 0.152409 0.000001 -0.079760 0.000012 -0.000000 2.639718 0.000001 -0.000000 -0.000000 0.000001 0.000013 -0.000011 -0.000001 -0.000002 0.000002 0.000012 0.000012 0.000007 -0.000001 -0.000001 -0.000002 2.625427 0.000000 11.175233 -23.168251 64.915805 -0.001086 -0.000015 -0.000038 10.813650 32.365121 21.806552 77.096737 0.000000 -0.000023 28.724758 -6.949754 -1.322213 64.651026 0.644386 0.328856 25.716209 24.827261 -25.969773 -11.499985 2.867332 -2.944275 3.959549 -32.811105 12.502619 59.373475 0.000010 -0.000006 3.350422 2.430897 -2.236659 -4.767092 0.000015 -0.000021 3.756497 1.668240 -1.574838 -3.299982 0.000001 -0.000008 3.100013 0.000001 0.000002 -0.000000 0.086761 -2.345264 10.030899 3.608806 -32.732797 15.505368 -0.000012 0.000023 4.061097 -0.778854 -0.000027 0.000586 0.000007 -0.000008 3.248883 -0.270277 -0.000038 -0.040155 0.000015 -0.000002 2.639709 -0.000001 0.000001 -0.000000 -0.104092 -0.006776 9.502953 -1.835488 -30.497829 12.840010 -0.000009 0.000027 4.568730 -0.754953 -0.000035 0.000042 -0.000007 -0.000028 3.655020 -0.236819 -0.000015 -0.216437 0.000004 0.000004 2.741261 0.000000 -0.000001 -0.000000 -0.086761 2.267435 8.921715 -10.500723 -27.671991 10.177199 0.000014 -0.000006 4.061101 1.215790 -0.000010 0.000125 0.000009 0.000016 3.654980 0.182453 -0.000008 -0.000377 0.000015 -0.000004 2.741262 -0.000001 0.000001 0.000001 0.173500 4.467234 7.977001 -19.114996 -24.505418 6.975669 -0.000007 0.000021 3.350371 2.338074 -0.000001 -0.000654 0.000014 0.000016 2.842761 0.287900 -0.000005 0.000054 -0.000015 0.000008 2.639709 -0.000001 0.000000 0.000001 -0.000003 0.000001 0.000002 -0.000000 -0.000000 -0.000003 -0.000025 -0.000009 0.000001 0.000001 -0.000000 -0.000006 -11.289974 0.000029 0.000027 20.189453 23.059943 -6.776990 -0.000011 0.000050 -38.200314 -1.495708 0.740942 26.347108 0.000013 0.000001 -39.900826 -0.932513 -4.992883 25.661823 -0.000015 -15.261642 0.000009 0.618627 1.469868 -20.490200 0.000038 -7.370646 0.000001 -0.000003 -0.000001 -0.000002 0.000008 0.000072 -0.000002 -0.000002 -0.000001 -0.000002 0.000014 0.000000 -0.000002 0.000000 0.000001 0.000000 11.315681 0.000038 0.000011 25.055779 -6.587252 10.442511 -0.000025 0.000096 -38.200294 1.246913 -0.579216 24.911911 -0.000034 -0.000001 -39.900864 15.672482 11.071729 8.612676 0.000013 -15.261625 0.000010 -2.654835 -0.530048 -18.333794 0.000001 -7.539977 0.000002 -0.000000 -0.000000 0.000001 -0.000000 -0.000061 0.000004 0.000000 0.000000 0.000000 -0.000013 0.000060 -0.000008 0.000000 0.000000 0.000002 
40.665253 -61.547485 85.038605 -45.813101 -5.443075 -8.908594 -0.000008 2.080069 8.814247 -1.236795 8.401652 7.968728 -0.000003 0.000021 8.844167 -0.654166 1.243263 3.882614 -0.000002 -0.000018 11.682272 -18.805976 -2.887325 3.579639 0.000000 -0.000011 11.746714 -8.199454 -5.739826 2.816546 0.000004 -0.000002 17.658283 26.101211 19.517547 5.617621 0.000010 0.000015 5.101506 26.458230 -1.563578 -12.089364 -0.000003 0.000014 5.101530 0.135569 5.057572 -15.769870 -0.000011 -0.000000 11.655091 -0.000000 0.000001 -0.000000 -2.625407 -0.000023 11.175207 1.579680 -71.215835 -0.383800 0.000015 0.000011 10.434731 38.251945 -24.301504 -44.052377 0.000011 -0.000078 29.628408 34.183908 3.804667 11.682425 -0.000023 -0.000046 22.857597 24.640717 21.580652 -15.617482 -2.867279 -2.944290 3.959557 33.272993 -11.458530 61.320646 -0.000014 -0.000001 3.350404 -0.293513 0.290511 -0.588539 0.000008 0.000004 3.756523 -0.203544 0.201870 -0.410897 -0.000012 0.000015 3.147346 -0.000001 0.000000 -0.000001 -0.086732 -2.345268 10.030869 17.811728 35.533793 31.373675 -0.000013 0.000006 4.061108 -0.832867 0.019643 -0.000107 0.000012 -0.000029 3.248875 -0.312855 -0.011103 0.015475 0.000013 0.000001 2.639715 0.000000 0.000002 -0.000001 0.104116 -0.006779 9.502945 11.829744 36.186892 23.312639 -0.000032 0.000010 4.568713 -0.619077 -0.000275 0.000434 -0.000014 -0.000004 3.654980 -0.086371 0.000002 0.028306 0.000026 0.000001 2.741262 0.000000 0.000002 -0.000003 0.086750 2.267467 8.921722 1.523317 35.087194 11.402610 0.000002 -0.000016 4.061064 1.137288 0.000005 0.000210 0.000010 -0.000024 3.654978 0.106278 -0.000001 -0.000324 0.000040 0.000010 2.741240 -0.000001 0.000001 -0.000001 -0.173462 4.467213 7.977004 -9.273261 30.292548 0.911961 -0.000011 -0.000002 3.350421 2.181257 -0.000002 -0.000982 -0.000006 -0.000027 2.842756 0.153690 0.000001 -0.080663 0.000005 0.000009 2.639715 -0.000001 -0.000000 0.000001 0.000030 0.000004 -0.000019 -0.000000 -0.000002 0.000001 -0.000011 0.000006 0.000012 -0.000002 -0.000001 0.000000 2.625412 0.000000 11.175215 -23.712827 63.985718 0.067422 -0.000008 -0.000015 10.813587 30.644422 21.249454 77.511609 -0.000010 -0.000008 28.724701 -7.474007 -0.997146 67.559300 0.644394 0.328815 25.716164 29.921119 -27.691421 -11.876902 2.867332 -2.944290 3.959572 -32.811102 12.502614 59.373462 -0.000007 -0.000009 3.350423 2.430889 -2.236676 -4.766884 0.000010 0.000023 3.756505 1.668265 -1.574814 -3.300179 0.000013 -0.000022 3.100013 0.000003 0.000002 -0.000001 0.086769 -2.345257 10.030899 3.676043 -32.430052 14.501212 -0.000013 0.000016 4.061101 -0.778958 0.000002 0.000591 -0.000032 0.000011 3.248880 -0.270290 -0.000049 -0.040221 0.000007 -0.000003 2.639720 0.000002 -0.000002 -0.000001 -0.104080 -0.006771 9.502953 -1.841882 -30.545716 12.022184 0.000011 -0.000029 4.568734 -0.754926 -0.000048 0.000037 0.000013 -0.000030 3.654974 -0.236697 -0.000017 -0.213613 -0.000000 0.000002 2.741256 0.000000 -0.000002 -0.000000 -0.086769 2.267466 8.921700 -10.692811 -28.377522 9.572901 0.000003 -0.000005 4.061111 1.215202 -0.000028 0.000129 0.000001 -0.000016 3.654999 0.181790 0.000001 -0.000371 0.000010 0.000007 2.741268 -0.000001 -0.000001 0.000000 0.173492 4.467255 7.977001 -19.509802 -25.702859 6.817351 -0.000013 0.000009 3.350402 2.337768 -0.034252 -0.002051 0.000004 0.000022 2.842773 0.287304 0.018383 0.000148 -0.000005 0.000002 2.639729 0.000000 -0.000002 -0.000000 -0.000000 -0.000001 0.000003 0.000000 0.000000 0.000002 -0.000050 -0.000022 0.000019 0.000003 0.000001 -0.000002 -11.289967 0.000000 0.000000 22.470226 23.003949 -5.535083 -0.000000 0.000042 -38.200344 -1.950056 0.872468 24.095014 0.000007 0.000008 -39.900841 -0.109687 -7.264078 25.888369 0.000016 -15.261652 0.000000 1.269089 1.320927 -20.785806 0.000002 -7.370662 0.000002 -0.000001 -0.000001 -0.000000 0.000006 0.000076 0.000001 -0.000002 -0.000004 -0.000005 -0.000003 0.000049 -0.000007 0.000002 -0.000003 0.000002 11.315702 0.000038 0.000008 24.744865 -6.901085 10.858610 -0.000008 0.000076 -38.200306 1.458942 -0.613946 22.817152 0.000009 0.000007 -39.900852 16.292399 11.735733 11.015215 0.000006 -15.261646 -0.000009 -2.685537 -0.798618 -19.149221 0.000000 -7.539977 -0.000003 -0.000000 -0.000000 0.000001 0.000000 0.000000 -0.000003 -0.000000 -0.000000 0.000002 -0.000015 0.000067 -0.000002 -0.000001 -0.000000 -0.000000 
